<svg width="212" height="66" viewBox="0 0 212 66" fill="none" xmlns="http://www.w3.org/2000/svg">
<path d="M0 66V0H14.8264V27.0769L21.8135 0H36.8955L28.3746 31.35L38.6423 66H23.0916L14.9116 35.6654V66H0Z" fill="white"/>
<path d="M40.5595 66V0H55.045V66H40.5595Z" fill="white"/>
<path d="M61.0096 66V0H76.4325L84.1865 35.7923V0H97.8199V66H83.164L74.8135 30.25V66H61.0096Z" fill="white"/>
<path d="M104.466 66V0H134.46V14.3846H119.719V25.3H133.863V39.3038H119.719V51.4885H135.44V66H104.466Z" fill="white"/>
<path d="M140.424 66V0H155.251V27.0769L162.238 0H177.32L168.799 31.35L179.067 66H163.516L155.336 35.6654V66H140.424Z" fill="white"/>
<path d="M188.099 66V14.3H179.195V0H212V14.3H203.096V66H188.099Z" fill="white"/>
</svg>
