<svg width="30" height="27" viewBox="0 0 30 27" fill="none" xmlns="http://www.w3.org/2000/svg">
<path d="M6.50297 1.81733C9.94219 4.457 13.642 9.80846 15 12.6802V20.2654C15 20.104 14.9391 20.2864 14.8078 20.6795C14.0991 22.8077 11.3306 31.1135 5.00016 24.4735C1.66687 20.9775 3.21 17.4815 9.2775 16.426C5.80641 17.0297 1.90406 16.032 0.833438 12.1205C0.525 10.9953 0 4.06442 0 3.12833C0 -1.5607 4.02141 -0.0868452 6.50297 1.81733ZM23.497 1.81733C20.0578 4.457 16.358 9.80846 15 12.6802V20.2654C15 20.104 15.0609 20.2864 15.1922 20.6795C15.9009 22.8077 18.6694 31.1135 24.9998 24.4735C28.3331 20.9775 26.79 17.4815 20.7225 16.426C24.1936 17.0297 28.0959 16.032 29.1666 12.1205C29.475 10.9953 30 4.06442 30 3.12833C30 -1.5607 25.9791 -0.0868452 23.497 1.81733Z" fill="white"/>
</svg>
