<svg width="51" height="17" viewBox="0 0 51 17" fill="none" xmlns="http://www.w3.org/2000/svg">
<path d="M5.875 16H0.9375V-4.76837e-07H6.09375C7.64583 -4.76837e-07 8.97396 0.320312 10.0781 0.960938C11.1823 1.59635 12.0286 2.51042 12.6172 3.70312C13.2057 4.89062 13.5 6.3125 13.5 7.96875C13.5 9.63542 13.2031 11.0703 12.6094 12.2734C12.0156 13.4714 11.151 14.3932 10.0156 15.0391C8.88021 15.6797 7.5 16 5.875 16ZM2.875 14.2812H5.75C7.07292 14.2812 8.16927 14.026 9.03906 13.5156C9.90885 13.0052 10.5573 12.2786 10.9844 11.3359C11.4115 10.3932 11.625 9.27083 11.625 7.96875C11.625 6.67708 11.4141 5.5651 10.9922 4.63281C10.5703 3.69531 9.9401 2.97656 9.10156 2.47656C8.26302 1.97135 7.21875 1.71875 5.96875 1.71875H2.875V14.2812ZM21.375 16.25C20.2917 16.25 19.3411 15.9922 18.5234 15.4766C17.7109 14.9609 17.0755 14.2396 16.6172 13.3125C16.1641 12.3854 15.9375 11.3021 15.9375 10.0625C15.9375 8.8125 16.1641 7.72135 16.6172 6.78906C17.0755 5.85677 17.7109 5.13281 18.5234 4.61719C19.3411 4.10156 20.2917 3.84375 21.375 3.84375C22.4583 3.84375 23.4063 4.10156 24.2188 4.61719C25.0365 5.13281 25.6719 5.85677 26.125 6.78906C26.5833 7.72135 26.8125 8.8125 26.8125 10.0625C26.8125 11.3021 26.5833 12.3854 26.125 13.3125C25.6719 14.2396 25.0365 14.9609 24.2188 15.4766C23.4063 15.9922 22.4583 16.25 21.375 16.25ZM21.375 14.5938C22.1979 14.5938 22.875 14.3828 23.4062 13.9609C23.9375 13.5391 24.3307 12.9844 24.5859 12.2969C24.8411 11.6094 24.9688 10.8646 24.9688 10.0625C24.9688 9.26042 24.8411 8.51302 24.5859 7.82031C24.3307 7.1276 23.9375 6.56771 23.4062 6.14062C22.875 5.71354 22.1979 5.5 21.375 5.5C20.5521 5.5 19.875 5.71354 19.3438 6.14062C18.8125 6.56771 18.4193 7.1276 18.1641 7.82031C17.9089 8.51302 17.7813 9.26042 17.7813 10.0625C17.7813 10.8646 17.9089 11.6094 18.1641 12.2969C18.4193 12.9844 18.8125 13.5391 19.3438 13.9609C19.875 14.3828 20.5521 14.5938 21.375 14.5938ZM34.502 16.25C33.377 16.25 32.4082 15.9844 31.5957 15.4531C30.7832 14.9219 30.1582 14.1901 29.7207 13.2578C29.2832 12.3255 29.0645 11.2604 29.0645 10.0625C29.0645 8.84375 29.2884 7.76823 29.7363 6.83594C30.1895 5.89844 30.8197 5.16667 31.627 4.64062C32.4395 4.10937 33.3874 3.84375 34.4707 3.84375C35.3145 3.84375 36.0749 4 36.752 4.3125C37.429 4.625 37.9837 5.0625 38.416 5.625C38.8483 6.1875 39.1165 6.84375 39.2207 7.59375H37.377C37.2363 7.04687 36.9238 6.5625 36.4395 6.14062C35.9603 5.71354 35.3145 5.5 34.502 5.5C33.7832 5.5 33.153 5.6875 32.6113 6.0625C32.0749 6.43229 31.6556 6.95573 31.3535 7.63281C31.0566 8.30469 30.9082 9.09375 30.9082 10C30.9082 10.9271 31.054 11.7344 31.3457 12.4219C31.6426 13.1094 32.0592 13.6432 32.5957 14.0234C33.1374 14.4036 33.7728 14.5938 34.502 14.5938C34.9811 14.5938 35.416 14.5104 35.8066 14.3437C36.1973 14.1771 36.528 13.9375 36.7988 13.625C37.0697 13.3125 37.2624 12.9375 37.377 12.5H39.2207C39.1165 13.2083 38.8587 13.8464 38.4473 14.4141C38.041 14.9766 37.502 15.4245 36.8301 15.7578C36.1634 16.0859 35.3874 16.25 34.502 16.25ZM50.416 6.6875L48.7598 7.15625C48.6556 6.88021 48.502 6.61198 48.2988 6.35156C48.1009 6.08594 47.8301 5.86719 47.4863 5.69531C47.1426 5.52344 46.7025 5.4375 46.166 5.4375C45.4316 5.4375 44.8197 5.60677 44.3301 5.94531C43.8457 6.27865 43.6035 6.70312 43.6035 7.21875C43.6035 7.67708 43.7702 8.03906 44.1035 8.30469C44.4368 8.57031 44.9577 8.79167 45.666 8.96875L47.4473 9.40625C48.5202 9.66667 49.3197 10.0651 49.8457 10.6016C50.3717 11.1328 50.6348 11.8177 50.6348 12.6562C50.6348 13.3437 50.4368 13.9583 50.041 14.5C49.6504 15.0417 49.1035 15.4688 48.4004 15.7813C47.6973 16.0938 46.8796 16.25 45.9473 16.25C44.7233 16.25 43.7103 15.9844 42.9082 15.4531C42.1061 14.9219 41.5983 14.1458 41.3848 13.125L43.1348 12.6875C43.3014 13.3333 43.6165 13.8177 44.0801 14.1406C44.5488 14.4635 45.1608 14.625 45.916 14.625C46.7754 14.625 47.4577 14.4427 47.9629 14.0781C48.4733 13.7083 48.7285 13.2656 48.7285 12.75C48.7285 12.3333 48.5827 11.9844 48.291 11.7031C47.9993 11.4167 47.5514 11.2031 46.9473 11.0625L44.9473 10.5937C43.8483 10.3333 43.041 9.92969 42.5254 9.38281C42.015 8.83073 41.7598 8.14062 41.7598 7.3125C41.7598 6.63542 41.9499 6.03646 42.3301 5.51562C42.7155 4.99479 43.2389 4.58594 43.9004 4.28906C44.5671 3.99219 45.3223 3.84375 46.166 3.84375C47.3535 3.84375 48.2858 4.10417 48.9629 4.625C49.6452 5.14583 50.1296 5.83333 50.416 6.6875Z" fill="white"/>
</svg>
