<svg width="42" height="41" viewBox="0 0 42 41" fill="none" xmlns="http://www.w3.org/2000/svg">
<path d="M21 0C9.3975 0 0 9.40579 0 21.0185C0 30.3192 6.01125 38.1749 14.3587 40.9599C15.4087 41.1438 15.8025 40.5132 15.8025 39.9615C15.8025 39.4623 15.7763 37.8071 15.7763 36.0468C10.5 37.0189 9.135 34.7594 8.715 33.5771C8.47875 32.9728 7.455 31.1074 6.5625 30.6082C5.8275 30.2141 4.7775 29.242 6.53625 29.2157C8.19 29.1895 9.37125 30.7396 9.765 31.3701C11.655 34.5492 14.6738 33.6559 15.8813 33.1042C16.065 31.738 16.6162 30.8184 17.22 30.2929C12.5475 29.7675 7.665 27.9546 7.665 19.9151C7.665 17.6293 8.47875 15.7376 9.8175 14.2663C9.6075 13.7409 8.8725 11.5865 10.0275 8.69641C10.0275 8.69641 11.7863 8.14468 15.8025 10.8508C17.4825 10.3779 19.2675 10.1414 21.0525 10.1414C22.8375 10.1414 24.6225 10.3779 26.3025 10.8508C30.3188 8.11841 32.0775 8.69641 32.0775 8.69641C33.2325 11.5865 32.4975 13.7409 32.2875 14.2663C33.6263 15.7376 34.44 17.603 34.44 19.9151C34.44 27.9809 29.5312 29.7675 24.8588 30.2929C25.62 30.9498 26.2763 32.2109 26.2763 34.1814C26.2763 36.9926 26.25 39.2521 26.25 39.9615C26.25 40.5132 26.6438 41.17 27.6938 40.9599C31.8633 39.5523 35.4865 36.8709 38.0531 33.2934C40.6196 29.716 42.0001 25.4227 42 21.0185C42 9.40579 32.6025 0 21 0Z" fill="white"/>
</svg>
