<svg width="151" height="50" viewBox="0 0 151 50" fill="none" xmlns="http://www.w3.org/2000/svg">
<path d="M37.8906 37.8906L12.1094 37.8906L12.1094 32.0312L23.8281 32.0312L12.1094 29.6875V23.4375L25 26.5625L37.8906 23.4375L37.8906 29.6875L26.1719 32.0371L37.8906 32.0371L37.8906 37.8906Z" fill="white"/>
<path d="M37.8906 12.1094H12.1094V21.0938L25 24.2188L37.8906 21.0938V12.1094Z" fill="white"/>
<path fill-rule="evenodd" clip-rule="evenodd" d="M25 50C38.8071 50 50 38.8071 50 25C50 11.1929 38.8071 0 25 0C11.1929 0 0 11.1929 0 25C0 38.8071 11.1929 50 25 50ZM25 46.0938C36.6498 46.0938 46.0938 36.6498 46.0938 25C46.0938 13.3502 36.6498 3.90625 25 3.90625C13.3502 3.90625 3.90625 13.3502 3.90625 25C3.90625 36.6498 13.3502 46.0938 25 46.0938Z" fill="white"/>
<path d="M64 39V12H70.0844V23.0769L72.9518 12H79.1411L75.6443 24.825L79.8579 39H73.4763L70.1194 26.5904V39H64Z" fill="white"/>
<path d="M80.6447 39V12H86.5892V39H80.6447Z" fill="white"/>
<path d="M89.037 39V12H95.3662L98.5482 26.6423V12H104.143V39H98.1286L94.7018 24.375V39H89.037Z" fill="white"/>
<path d="M106.871 39V12H119.179V17.8846H113.13V22.35H118.934V28.0788H113.13V33.0635H119.581V39H106.871Z" fill="white"/>
<path d="M121.627 39V12H127.711V23.0769L130.579 12H136.768L133.271 24.825L137.485 39H131.103L127.746 26.5904V39H121.627Z" fill="white"/>
<path d="M141.192 39V17.85H137.537V12H151V17.85H147.346V39H141.192Z" fill="white"/>
</svg>
