<svg width="87" height="27" viewBox="0 0 87 27" fill="none" xmlns="http://www.w3.org/2000/svg">
<path d="M0 27V0H6.08441V11.0769L8.95177 0H15.1411L11.6443 12.825L15.8579 27H9.47629L6.11937 14.5904V27H0Z" fill="white"/>
<path d="M16.6447 27V0H22.5892V27H16.6447Z" fill="white"/>
<path d="M25.037 27V0H31.3662L34.5482 14.6423V0H40.1431V27H34.1286L30.7018 12.375V27H25.037Z" fill="white"/>
<path d="M42.8706 27V0H55.1793V5.88462H49.1298V10.35H54.9345V16.0788H49.1298V21.0635H55.5814V27H42.8706Z" fill="white"/>
<path d="M57.627 27V0H63.7114V11.0769L66.5788 0H72.7681L69.2713 12.825L73.4849 27H67.1033L63.7464 14.5904V27H57.627Z" fill="white"/>
<path d="M77.1915 27V5.85H73.5374V0H87V5.85H83.3459V27H77.1915Z" fill="white"/>
</svg>
