<svg width="566" height="572" viewBox="0 0 566 572" fill="none" xmlns="http://www.w3.org/2000/svg">
<rect x="253.056" y="1.5" width="59.8889" height="59.8889" rx="10.5" fill="url(#paint0_radial_13_238)" stroke="white" stroke-width="3"/>
<rect x="190.167" y="128.645" width="59.8889" height="59.8889" rx="10.5" fill="url(#paint1_radial_13_238)" stroke="white" stroke-width="3"/>
<rect x="315.945" y="128.645" width="59.8889" height="59.8889" rx="10.5" fill="url(#paint2_radial_13_238)" stroke="white" stroke-width="3"/>
<path d="M283 62.8889V80.9662C283 87.5936 277.628 92.9662 271 92.9662L232.111 92.9662C225.484 92.9662 220.111 98.3388 220.111 104.966V129.879" stroke="white" stroke-width="3"/>
<g filter="url(#filter0_d_13_238)">
<line x1="282.527" y1="78.8475" x2="286.629" y2="87.0504" stroke="#0C0000" stroke-width="2" shape-rendering="crispEdges"/>
</g>
<path d="M283 62.8889V80.9662C283 87.5936 288.373 92.9662 295 92.9662L333.889 92.9662C340.516 92.9662 345.889 98.3388 345.889 104.966V129.879" stroke="white" stroke-width="3"/>
<line x1="216.01" y1="125.645" x2="224.213" y2="125.645" stroke="white" stroke-width="3"/>
<line x1="341.788" y1="125.645" x2="349.991" y2="125.645" stroke="white" stroke-width="3"/>
<line x1="278.899" y1="65.4903" x2="287.102" y2="65.4903" stroke="white" stroke-width="3"/>
<rect x="378.833" y="255.79" width="59.8889" height="59.8889" rx="10.5" fill="url(#paint3_radial_13_238)" stroke="white" stroke-width="3"/>
<g filter="url(#filter1_d_13_238)">
<line x1="345.416" y1="205.992" x2="349.517" y2="214.195" stroke="#0C0000" stroke-width="2" shape-rendering="crispEdges"/>
</g>
<path d="M345.889 190.034V208.111C345.889 214.739 351.261 220.111 357.889 220.111L396.778 220.111C403.405 220.111 408.778 225.484 408.778 232.111V257.024" stroke="white" stroke-width="3"/>
<line x1="404.676" y1="252.79" x2="412.879" y2="252.79" stroke="white" stroke-width="3"/>
<line x1="341.787" y1="192.635" x2="349.99" y2="192.635" stroke="white" stroke-width="3"/>
<rect x="315.944" y="382.935" width="59.8889" height="59.8889" rx="10.5" fill="url(#paint4_radial_13_238)" stroke="white" stroke-width="3"/>
<g filter="url(#filter2_d_13_238)">
<line x1="282.527" y1="333.137" x2="286.628" y2="341.34" stroke="#0C0000" stroke-width="2" shape-rendering="crispEdges"/>
</g>
<path d="M283 317.179V335.256C283 341.883 288.372 347.256 295 347.256L333.889 347.256C340.516 347.256 345.889 352.629 345.889 359.256V384.169" stroke="white" stroke-width="3"/>
<line x1="341.787" y1="379.935" x2="349.99" y2="379.935" stroke="white" stroke-width="3"/>
<line x1="278.898" y1="319.78" x2="287.101" y2="319.78" stroke="white" stroke-width="3"/>
<rect x="378.833" y="510.08" width="59.8889" height="59.8889" rx="10.5" fill="url(#paint5_radial_13_238)" stroke="white" stroke-width="3"/>
<g filter="url(#filter3_d_13_238)">
<line x1="345.416" y1="460.282" x2="349.517" y2="468.485" stroke="#0C0000" stroke-width="2" shape-rendering="crispEdges"/>
</g>
<path d="M345.889 444.324V462.401C345.889 469.028 351.261 474.401 357.889 474.401L396.778 474.401C403.405 474.401 408.778 479.774 408.778 486.401V511.314" stroke="white" stroke-width="3"/>
<line x1="404.676" y1="507.08" x2="412.879" y2="507.08" stroke="white" stroke-width="3"/>
<line x1="341.787" y1="446.925" x2="349.99" y2="446.925" stroke="white" stroke-width="3"/>
<rect x="504.611" y="510.08" width="59.8889" height="59.8889" rx="10.5" fill="url(#paint6_radial_13_238)" stroke="white" stroke-width="3"/>
<g filter="url(#filter4_d_13_238)">
<line x1="471.194" y1="460.282" x2="475.295" y2="468.485" stroke="#0C0000" stroke-width="2" shape-rendering="crispEdges"/>
</g>
<path d="M471.667 444.324V462.401C471.667 469.028 477.039 474.401 483.667 474.401L522.556 474.401C529.183 474.401 534.556 479.774 534.556 486.401V511.314" stroke="white" stroke-width="3"/>
<line x1="530.454" y1="507.08" x2="538.657" y2="507.08" stroke="white" stroke-width="3"/>
<line x1="467.565" y1="446.925" x2="475.768" y2="446.925" stroke="white" stroke-width="3"/>
<rect x="441.722" y="382.935" width="59.8889" height="59.8889" rx="10.5" fill="url(#paint7_radial_13_238)" stroke="white" stroke-width="3"/>
<g filter="url(#filter5_d_13_238)">
<line x1="408.305" y1="333.137" x2="412.407" y2="341.34" stroke="#0C0000" stroke-width="2" shape-rendering="crispEdges"/>
</g>
<path d="M408.778 317.179V335.256C408.778 341.883 414.15 347.256 420.778 347.256L459.667 347.256C466.294 347.256 471.667 352.629 471.667 359.256V384.169" stroke="white" stroke-width="3"/>
<line x1="467.565" y1="379.935" x2="475.768" y2="379.935" stroke="white" stroke-width="3"/>
<line x1="404.676" y1="319.78" x2="412.879" y2="319.78" stroke="white" stroke-width="3"/>
<rect x="127.278" y="255.79" width="59.8889" height="59.8889" rx="10.5" fill="url(#paint8_radial_13_238)" stroke="white" stroke-width="3"/>
<rect x="253.056" y="255.79" width="59.8889" height="59.8889" rx="10.5" fill="url(#paint9_radial_13_238)" stroke="white" stroke-width="3"/>
<path d="M220.111 190.034V208.111C220.111 214.739 214.738 220.111 208.111 220.111L169.222 220.111C162.595 220.111 157.222 225.484 157.222 232.111V257.024" stroke="white" stroke-width="3"/>
<g filter="url(#filter6_d_13_238)">
<line x1="219.638" y1="205.992" x2="223.74" y2="214.195" stroke="#0C0000" stroke-width="2" shape-rendering="crispEdges"/>
</g>
<path d="M220.111 190.034V208.111C220.111 214.739 225.484 220.111 232.111 220.111L271 220.111C277.627 220.111 283 225.484 283 232.111V257.024" stroke="white" stroke-width="3"/>
<line x1="153.121" y1="252.79" x2="161.324" y2="252.79" stroke="white" stroke-width="3"/>
<line x1="278.898" y1="252.79" x2="287.101" y2="252.79" stroke="white" stroke-width="3"/>
<line x1="216.01" y1="192.635" x2="224.213" y2="192.635" stroke="white" stroke-width="3"/>
<rect x="64.3889" y="382.935" width="59.8889" height="59.8889" rx="10.5" fill="url(#paint10_radial_13_238)" stroke="white" stroke-width="3"/>
<rect x="190.167" y="382.935" width="59.8889" height="59.8889" rx="10.5" fill="url(#paint11_radial_13_238)" stroke="white" stroke-width="3"/>
<path d="M157.222 317.179V335.256C157.222 341.883 151.85 347.256 145.222 347.256L106.333 347.256C99.7058 347.256 94.3333 352.629 94.3333 359.256V384.169" stroke="white" stroke-width="3"/>
<g filter="url(#filter7_d_13_238)">
<line x1="156.749" y1="333.137" x2="160.851" y2="341.34" stroke="#0C0000" stroke-width="2" shape-rendering="crispEdges"/>
</g>
<path d="M157.222 317.179V335.256C157.222 341.883 162.595 347.256 169.222 347.256L208.111 347.256C214.739 347.256 220.111 352.629 220.111 359.256V384.169" stroke="white" stroke-width="3"/>
<line x1="90.2319" y1="379.935" x2="98.4348" y2="379.935" stroke="white" stroke-width="3"/>
<line x1="216.01" y1="379.935" x2="224.213" y2="379.935" stroke="white" stroke-width="3"/>
<line x1="153.121" y1="319.78" x2="161.324" y2="319.78" stroke="white" stroke-width="3"/>
<rect x="1.5" y="510.08" width="59.8889" height="59.8889" rx="10.5" fill="url(#paint12_radial_13_238)" stroke="white" stroke-width="3"/>
<path d="M94.3333 444.324V462.401C94.3333 469.028 88.9608 474.401 82.3333 474.401L43.4445 474.401C36.817 474.401 31.4445 479.774 31.4445 486.401V511.314" stroke="white" stroke-width="3"/>
<line x1="27.343" y1="507.08" x2="35.5459" y2="507.08" stroke="white" stroke-width="3"/>
<line x1="90.2319" y1="446.925" x2="98.4348" y2="446.925" stroke="white" stroke-width="3"/>
<rect x="127.278" y="510.08" width="59.8889" height="59.8889" rx="10.5" fill="url(#paint13_radial_13_238)" stroke="white" stroke-width="3"/>
<rect x="253.056" y="510.08" width="59.8889" height="59.8889" rx="10.5" fill="url(#paint14_radial_13_238)" stroke="white" stroke-width="3"/>
<path d="M220.111 444.324V462.401C220.111 469.028 214.738 474.401 208.111 474.401L169.222 474.401C162.595 474.401 157.222 479.774 157.222 486.401V511.314" stroke="white" stroke-width="3"/>
<g filter="url(#filter8_d_13_238)">
<line x1="219.638" y1="460.282" x2="223.74" y2="468.485" stroke="#0C0000" stroke-width="2" shape-rendering="crispEdges"/>
</g>
<path d="M220.111 444.324V462.401C220.111 469.028 225.484 474.401 232.111 474.401L271 474.401C277.627 474.401 283 479.774 283 486.401V511.314" stroke="white" stroke-width="3"/>
<line x1="153.121" y1="507.08" x2="161.324" y2="507.08" stroke="white" stroke-width="3"/>
<line x1="278.898" y1="507.08" x2="287.101" y2="507.08" stroke="white" stroke-width="3"/>
<line x1="216.01" y1="446.925" x2="224.213" y2="446.925" stroke="white" stroke-width="3"/>
<rect width="566" height="572" fill="url(#paint15_radial_13_238)"/>
<defs>
<filter id="filter0_d_13_238" x="279.133" y="75.9003" width="10.8904" height="14.0973" filterUnits="userSpaceOnUse" color-interpolation-filters="sRGB">
<feFlood flood-opacity="0" result="BackgroundImageFix"/>
<feColorMatrix in="SourceAlpha" type="matrix" values="0 0 0 0 0 0 0 0 0 0 0 0 0 0 0 0 0 0 127 0" result="hardAlpha"/>
<feOffset/>
<feGaussianBlur stdDeviation="1.25"/>
<feComposite in2="hardAlpha" operator="out"/>
<feColorMatrix type="matrix" values="0 0 0 0 0 0 0 0 0 0 0 0 0 0 0 0 0 0 0.86 0"/>
<feBlend mode="normal" in2="BackgroundImageFix" result="effect1_dropShadow_13_238"/>
<feBlend mode="normal" in="SourceGraphic" in2="effect1_dropShadow_13_238" result="shape"/>
</filter>
<filter id="filter1_d_13_238" x="342.021" y="203.045" width="10.8904" height="14.0973" filterUnits="userSpaceOnUse" color-interpolation-filters="sRGB">
<feFlood flood-opacity="0" result="BackgroundImageFix"/>
<feColorMatrix in="SourceAlpha" type="matrix" values="0 0 0 0 0 0 0 0 0 0 0 0 0 0 0 0 0 0 127 0" result="hardAlpha"/>
<feOffset/>
<feGaussianBlur stdDeviation="1.25"/>
<feComposite in2="hardAlpha" operator="out"/>
<feColorMatrix type="matrix" values="0 0 0 0 0 0 0 0 0 0 0 0 0 0 0 0 0 0 0.86 0"/>
<feBlend mode="normal" in2="BackgroundImageFix" result="effect1_dropShadow_13_238"/>
<feBlend mode="normal" in="SourceGraphic" in2="effect1_dropShadow_13_238" result="shape"/>
</filter>
<filter id="filter2_d_13_238" x="279.133" y="330.19" width="10.8904" height="14.0974" filterUnits="userSpaceOnUse" color-interpolation-filters="sRGB">
<feFlood flood-opacity="0" result="BackgroundImageFix"/>
<feColorMatrix in="SourceAlpha" type="matrix" values="0 0 0 0 0 0 0 0 0 0 0 0 0 0 0 0 0 0 127 0" result="hardAlpha"/>
<feOffset/>
<feGaussianBlur stdDeviation="1.25"/>
<feComposite in2="hardAlpha" operator="out"/>
<feColorMatrix type="matrix" values="0 0 0 0 0 0 0 0 0 0 0 0 0 0 0 0 0 0 0.86 0"/>
<feBlend mode="normal" in2="BackgroundImageFix" result="effect1_dropShadow_13_238"/>
<feBlend mode="normal" in="SourceGraphic" in2="effect1_dropShadow_13_238" result="shape"/>
</filter>
<filter id="filter3_d_13_238" x="342.021" y="457.335" width="10.8904" height="14.0974" filterUnits="userSpaceOnUse" color-interpolation-filters="sRGB">
<feFlood flood-opacity="0" result="BackgroundImageFix"/>
<feColorMatrix in="SourceAlpha" type="matrix" values="0 0 0 0 0 0 0 0 0 0 0 0 0 0 0 0 0 0 127 0" result="hardAlpha"/>
<feOffset/>
<feGaussianBlur stdDeviation="1.25"/>
<feComposite in2="hardAlpha" operator="out"/>
<feColorMatrix type="matrix" values="0 0 0 0 0 0 0 0 0 0 0 0 0 0 0 0 0 0 0.86 0"/>
<feBlend mode="normal" in2="BackgroundImageFix" result="effect1_dropShadow_13_238"/>
<feBlend mode="normal" in="SourceGraphic" in2="effect1_dropShadow_13_238" result="shape"/>
</filter>
<filter id="filter4_d_13_238" x="467.8" y="457.335" width="10.8904" height="14.0974" filterUnits="userSpaceOnUse" color-interpolation-filters="sRGB">
<feFlood flood-opacity="0" result="BackgroundImageFix"/>
<feColorMatrix in="SourceAlpha" type="matrix" values="0 0 0 0 0 0 0 0 0 0 0 0 0 0 0 0 0 0 127 0" result="hardAlpha"/>
<feOffset/>
<feGaussianBlur stdDeviation="1.25"/>
<feComposite in2="hardAlpha" operator="out"/>
<feColorMatrix type="matrix" values="0 0 0 0 0 0 0 0 0 0 0 0 0 0 0 0 0 0 0.86 0"/>
<feBlend mode="normal" in2="BackgroundImageFix" result="effect1_dropShadow_13_238"/>
<feBlend mode="normal" in="SourceGraphic" in2="effect1_dropShadow_13_238" result="shape"/>
</filter>
<filter id="filter5_d_13_238" x="404.911" y="330.19" width="10.8904" height="14.0974" filterUnits="userSpaceOnUse" color-interpolation-filters="sRGB">
<feFlood flood-opacity="0" result="BackgroundImageFix"/>
<feColorMatrix in="SourceAlpha" type="matrix" values="0 0 0 0 0 0 0 0 0 0 0 0 0 0 0 0 0 0 127 0" result="hardAlpha"/>
<feOffset/>
<feGaussianBlur stdDeviation="1.25"/>
<feComposite in2="hardAlpha" operator="out"/>
<feColorMatrix type="matrix" values="0 0 0 0 0 0 0 0 0 0 0 0 0 0 0 0 0 0 0.86 0"/>
<feBlend mode="normal" in2="BackgroundImageFix" result="effect1_dropShadow_13_238"/>
<feBlend mode="normal" in="SourceGraphic" in2="effect1_dropShadow_13_238" result="shape"/>
</filter>
<filter id="filter6_d_13_238" x="216.244" y="203.045" width="10.8904" height="14.0973" filterUnits="userSpaceOnUse" color-interpolation-filters="sRGB">
<feFlood flood-opacity="0" result="BackgroundImageFix"/>
<feColorMatrix in="SourceAlpha" type="matrix" values="0 0 0 0 0 0 0 0 0 0 0 0 0 0 0 0 0 0 127 0" result="hardAlpha"/>
<feOffset/>
<feGaussianBlur stdDeviation="1.25"/>
<feComposite in2="hardAlpha" operator="out"/>
<feColorMatrix type="matrix" values="0 0 0 0 0 0 0 0 0 0 0 0 0 0 0 0 0 0 0.86 0"/>
<feBlend mode="normal" in2="BackgroundImageFix" result="effect1_dropShadow_13_238"/>
<feBlend mode="normal" in="SourceGraphic" in2="effect1_dropShadow_13_238" result="shape"/>
</filter>
<filter id="filter7_d_13_238" x="153.355" y="330.19" width="10.8904" height="14.0974" filterUnits="userSpaceOnUse" color-interpolation-filters="sRGB">
<feFlood flood-opacity="0" result="BackgroundImageFix"/>
<feColorMatrix in="SourceAlpha" type="matrix" values="0 0 0 0 0 0 0 0 0 0 0 0 0 0 0 0 0 0 127 0" result="hardAlpha"/>
<feOffset/>
<feGaussianBlur stdDeviation="1.25"/>
<feComposite in2="hardAlpha" operator="out"/>
<feColorMatrix type="matrix" values="0 0 0 0 0 0 0 0 0 0 0 0 0 0 0 0 0 0 0.86 0"/>
<feBlend mode="normal" in2="BackgroundImageFix" result="effect1_dropShadow_13_238"/>
<feBlend mode="normal" in="SourceGraphic" in2="effect1_dropShadow_13_238" result="shape"/>
</filter>
<filter id="filter8_d_13_238" x="216.244" y="457.335" width="10.8904" height="14.0974" filterUnits="userSpaceOnUse" color-interpolation-filters="sRGB">
<feFlood flood-opacity="0" result="BackgroundImageFix"/>
<feColorMatrix in="SourceAlpha" type="matrix" values="0 0 0 0 0 0 0 0 0 0 0 0 0 0 0 0 0 0 127 0" result="hardAlpha"/>
<feOffset/>
<feGaussianBlur stdDeviation="1.25"/>
<feComposite in2="hardAlpha" operator="out"/>
<feColorMatrix type="matrix" values="0 0 0 0 0 0 0 0 0 0 0 0 0 0 0 0 0 0 0.86 0"/>
<feBlend mode="normal" in2="BackgroundImageFix" result="effect1_dropShadow_13_238"/>
<feBlend mode="normal" in="SourceGraphic" in2="effect1_dropShadow_13_238" result="shape"/>
</filter>
<radialGradient id="paint0_radial_13_238" cx="0" cy="0" r="1" gradientUnits="userSpaceOnUse" gradientTransform="translate(283 34.0831) rotate(90) scale(31.5544 31.0559)">
<stop offset="0.27" stop-color="#11032C" stop-opacity="0.81"/>
<stop offset="1" stop-color="#11032C"/>
</radialGradient>
<radialGradient id="paint1_radial_13_238" cx="0" cy="0" r="1" gradientUnits="userSpaceOnUse" gradientTransform="translate(220.111 161.228) rotate(90) scale(31.5544 31.0559)">
<stop offset="0.27" stop-color="#11032C" stop-opacity="0.81"/>
<stop offset="1" stop-color="#11032C"/>
</radialGradient>
<radialGradient id="paint2_radial_13_238" cx="0" cy="0" r="1" gradientUnits="userSpaceOnUse" gradientTransform="translate(345.889 161.228) rotate(90) scale(31.5544 31.0559)">
<stop offset="0.27" stop-color="#11032C" stop-opacity="0.81"/>
<stop offset="1" stop-color="#11032C"/>
</radialGradient>
<radialGradient id="paint3_radial_13_238" cx="0" cy="0" r="1" gradientUnits="userSpaceOnUse" gradientTransform="translate(408.778 288.373) rotate(90) scale(31.5544 31.0559)">
<stop offset="0.27" stop-color="#11032C" stop-opacity="0.81"/>
<stop offset="1" stop-color="#11032C"/>
</radialGradient>
<radialGradient id="paint4_radial_13_238" cx="0" cy="0" r="1" gradientUnits="userSpaceOnUse" gradientTransform="translate(345.889 415.518) rotate(90) scale(31.5544 31.0559)">
<stop offset="0.27" stop-color="#11032C" stop-opacity="0.81"/>
<stop offset="1" stop-color="#11032C"/>
</radialGradient>
<radialGradient id="paint5_radial_13_238" cx="0" cy="0" r="1" gradientUnits="userSpaceOnUse" gradientTransform="translate(408.778 542.663) rotate(90) scale(31.5544 31.0559)">
<stop offset="0.27" stop-color="#11032C" stop-opacity="0.81"/>
<stop offset="1" stop-color="#11032C"/>
</radialGradient>
<radialGradient id="paint6_radial_13_238" cx="0" cy="0" r="1" gradientUnits="userSpaceOnUse" gradientTransform="translate(534.556 542.663) rotate(90) scale(31.5544 31.0559)">
<stop offset="0.27" stop-color="#11032C" stop-opacity="0.81"/>
<stop offset="1" stop-color="#11032C"/>
</radialGradient>
<radialGradient id="paint7_radial_13_238" cx="0" cy="0" r="1" gradientUnits="userSpaceOnUse" gradientTransform="translate(471.667 415.518) rotate(90) scale(31.5544 31.0559)">
<stop offset="0.27" stop-color="#11032C" stop-opacity="0.81"/>
<stop offset="1" stop-color="#11032C"/>
</radialGradient>
<radialGradient id="paint8_radial_13_238" cx="0" cy="0" r="1" gradientUnits="userSpaceOnUse" gradientTransform="translate(157.222 288.373) rotate(90) scale(31.5544 31.0559)">
<stop offset="0.27" stop-color="#11032C" stop-opacity="0.81"/>
<stop offset="1" stop-color="#11032C"/>
</radialGradient>
<radialGradient id="paint9_radial_13_238" cx="0" cy="0" r="1" gradientUnits="userSpaceOnUse" gradientTransform="translate(283 288.373) rotate(90) scale(31.5544 31.0559)">
<stop offset="0.27" stop-color="#11032C" stop-opacity="0.81"/>
<stop offset="1" stop-color="#11032C"/>
</radialGradient>
<radialGradient id="paint10_radial_13_238" cx="0" cy="0" r="1" gradientUnits="userSpaceOnUse" gradientTransform="translate(94.3334 415.518) rotate(90) scale(31.5544 31.0559)">
<stop offset="0.27" stop-color="#11032C" stop-opacity="0.81"/>
<stop offset="1" stop-color="#11032C"/>
</radialGradient>
<radialGradient id="paint11_radial_13_238" cx="0" cy="0" r="1" gradientUnits="userSpaceOnUse" gradientTransform="translate(220.111 415.518) rotate(90) scale(31.5544 31.0559)">
<stop offset="0.27" stop-color="#11032C" stop-opacity="0.81"/>
<stop offset="1" stop-color="#11032C"/>
</radialGradient>
<radialGradient id="paint12_radial_13_238" cx="0" cy="0" r="1" gradientUnits="userSpaceOnUse" gradientTransform="translate(31.4444 542.663) rotate(90) scale(31.5544 31.0559)">
<stop offset="0.27" stop-color="#11032C" stop-opacity="0.81"/>
<stop offset="1" stop-color="#11032C"/>
</radialGradient>
<radialGradient id="paint13_radial_13_238" cx="0" cy="0" r="1" gradientUnits="userSpaceOnUse" gradientTransform="translate(157.222 542.663) rotate(90) scale(31.5544 31.0559)">
<stop offset="0.27" stop-color="#11032C" stop-opacity="0.81"/>
<stop offset="1" stop-color="#11032C"/>
</radialGradient>
<radialGradient id="paint14_radial_13_238" cx="0" cy="0" r="1" gradientUnits="userSpaceOnUse" gradientTransform="translate(283 542.663) rotate(90) scale(31.5544 31.0559)">
<stop offset="0.27" stop-color="#11032C" stop-opacity="0.81"/>
<stop offset="1" stop-color="#11032C"/>
</radialGradient>
<radialGradient id="paint15_radial_13_238" cx="0" cy="0" r="1" gradientUnits="userSpaceOnUse" gradientTransform="translate(283 243) rotate(90) scale(346.5 338.437)">
<stop offset="0.27" stop-color="#11032C" stop-opacity="0.81"/>
<stop offset="1" stop-color="#11032C"/>
</radialGradient>
</defs>
</svg>
