<svg width="326" height="98" viewBox="0 0 326 98" fill="none" xmlns="http://www.w3.org/2000/svg">
<path d="M114 82V16H128.826V43.0769L135.814 16H150.895L142.375 47.35L152.642 82H137.092L128.912 51.6654V82H114Z" fill="white"/>
<path d="M154.559 82V16H169.045V82H154.559Z" fill="white"/>
<path d="M175.01 82V16H190.432L198.186 51.7923V16H211.82V82H197.164L188.814 46.25V82H175.01Z" fill="white"/>
<path d="M218.466 82V16H248.46V30.3846H233.719V41.3H247.863V55.3038H233.719V67.4885H249.44V82H218.466Z" fill="white"/>
<path d="M254.424 82V16H269.251V43.0769L276.238 16H291.32L282.799 47.35L293.067 82H277.516L269.336 51.6654V82H254.424Z" fill="white"/>
<path d="M302.099 82V30.3H293.195V16H326V30.3H317.096V82H302.099Z" fill="white"/>
<path d="M82 82L16 82L16 67L46 67L16 61L16 45L49 53L82 45L82 61L52 67.015L82 67.015L82 82Z" fill="white"/>
<path fill-rule="evenodd" clip-rule="evenodd" d="M0 0H98V98H0V0ZM8.02941 8.02941H89.9706V89.9706H8.02941V8.02941Z" fill="white"/>
<path d="M82 16H16V39L49 47L82 39V16Z" fill="white"/>
</svg>
