<svg width="270" height="725" viewBox="0 0 270 725" fill="none" xmlns="http://www.w3.org/2000/svg">
<g opacity="0.12">
<path fill-rule="evenodd" clip-rule="evenodd" d="M8 47.0966C3.58172 47.0966 0 50.6783 0 55.0966V126.913C0 131.331 3.58172 134.913 8 134.913H261.304C265.722 134.913 269.304 131.331 269.304 126.913V55.0966C269.304 50.6783 265.722 47.0966 261.304 47.0966H8ZM10.8545 52.9511C8.09303 52.9511 5.85445 55.1897 5.85445 57.9511V124.059C5.85445 126.82 8.09304 129.059 10.8545 129.059H258.449C261.211 129.059 263.449 126.82 263.449 124.059V57.9511C263.449 55.1897 261.211 52.9511 258.449 52.9511H10.8545Z" fill="white"/>
<circle cx="133.676" cy="49.536" r="12.1967" fill="#11032C"/>
<rect x="130.749" y="29.5333" width="5.85443" height="17.5633" fill="white"/>
<circle cx="133.676" cy="50.0238" r="4.87869" fill="white"/>
<path d="M126.846 38.9939C123.325 41.248 120.991 45.1937 120.991 49.6844C120.991 56.6899 126.67 62.369 133.676 62.369C140.681 62.369 146.361 56.6899 146.361 49.6844C146.361 45.1937 144.027 41.248 140.506 38.9939V41.4046C142.89 43.3733 144.409 46.3514 144.409 49.6844C144.409 55.6122 139.604 60.4175 133.676 60.4175C127.748 60.4175 122.943 55.6122 122.943 49.6844C122.943 46.3514 124.462 43.3733 126.846 41.4046V38.9939Z" fill="white"/>
<path d="M125.198 94.1948H121.274C120.818 94.1948 120.39 94.1108 119.99 93.9428C119.598 93.7668 119.25 93.5268 118.946 93.2228C118.65 92.9188 118.418 92.5708 118.25 92.1788C118.082 91.7788 117.998 91.3508 117.998 90.8948C117.998 90.4388 118.082 90.0148 118.25 89.6228C118.418 89.2228 118.65 88.8708 118.946 88.5668C119.25 88.2628 119.598 88.0268 119.99 87.8588C120.39 87.6828 120.818 87.5948 121.274 87.5948H125.198V88.7948H121.274C120.89 88.7948 120.542 88.8908 120.23 89.0828C119.918 89.2748 119.666 89.5308 119.474 89.8508C119.29 90.1628 119.198 90.5108 119.198 90.8948C119.198 91.2788 119.29 91.6308 119.474 91.9508C119.666 92.2628 119.918 92.5148 120.23 92.7068C120.542 92.8988 120.89 92.9948 121.274 92.9948H125.198V94.1948ZM134.355 90.8948C134.355 91.3508 134.271 91.7788 134.103 92.1788C133.935 92.5708 133.699 92.9188 133.395 93.2228C133.099 93.5268 132.751 93.7668 132.351 93.9428C131.959 94.1108 131.535 94.1948 131.079 94.1948H129.231C128.775 94.1948 128.347 94.1108 127.947 93.9428C127.555 93.7668 127.207 93.5268 126.903 93.2228C126.607 92.9188 126.375 92.5708 126.207 92.1788C126.039 91.7788 125.955 91.3508 125.955 90.8948C125.955 90.4388 126.039 90.0148 126.207 89.6228C126.375 89.2228 126.607 88.8708 126.903 88.5668C127.207 88.2628 127.555 88.0268 127.947 87.8588C128.347 87.6828 128.775 87.5948 129.231 87.5948H131.079C131.535 87.5948 131.959 87.6828 132.351 87.8588C132.751 88.0268 133.099 88.2628 133.395 88.5668C133.699 88.8708 133.935 89.2228 134.103 89.6228C134.271 90.0148 134.355 90.4388 134.355 90.8948ZM133.155 90.8948C133.155 90.5108 133.063 90.1628 132.879 89.8508C132.695 89.5308 132.443 89.2748 132.123 89.0828C131.811 88.8908 131.463 88.7948 131.079 88.7948H129.231C128.847 88.7948 128.499 88.8908 128.187 89.0828C127.875 89.2748 127.623 89.5308 127.431 89.8508C127.247 90.1628 127.155 90.5108 127.155 90.8948C127.155 91.2788 127.247 91.6308 127.431 91.9508C127.623 92.2628 127.875 92.5148 128.187 92.7068C128.499 92.8988 128.847 92.9948 129.231 92.9948H131.079C131.463 92.9948 131.811 92.8988 132.123 92.7068C132.443 92.5148 132.695 92.2628 132.879 91.9508C133.063 91.6308 133.155 91.2788 133.155 90.8948ZM142.22 88.7948H137.72C137.472 88.7948 137.26 88.8828 137.084 89.0588C136.908 89.2348 136.82 89.4468 136.82 89.6948V94.1948H135.62V89.6948C135.62 89.3028 135.712 88.9508 135.896 88.6388C136.088 88.3188 136.344 88.0668 136.664 87.8828C136.984 87.6908 137.336 87.5948 137.72 87.5948H142.22V88.7948ZM150.079 92.0948C150.079 92.4868 149.983 92.8428 149.791 93.1628C149.607 93.4748 149.355 93.7268 149.035 93.9188C148.723 94.1028 148.371 94.1948 147.979 94.1948H142.879V92.9948H147.979C148.227 92.9948 148.439 92.9068 148.615 92.7308C148.791 92.5548 148.879 92.3428 148.879 92.0948C148.879 91.8468 148.791 91.6348 148.615 91.4588C148.439 91.2828 148.227 91.1948 147.979 91.1948H144.679C144.351 91.1948 144.047 91.1148 143.767 90.9548C143.495 90.7948 143.279 90.5788 143.119 90.3068C142.959 90.0268 142.879 89.7228 142.879 89.3948C142.879 89.0588 142.959 88.7548 143.119 88.4828C143.279 88.2108 143.495 87.9948 143.767 87.8348C144.047 87.6748 144.351 87.5948 144.679 87.5948H149.479V88.7948H144.679C144.511 88.7948 144.367 88.8548 144.247 88.9748C144.135 89.0868 144.079 89.2268 144.079 89.3948C144.079 89.5628 144.135 89.7068 144.247 89.8268C144.367 89.9388 144.511 89.9948 144.679 89.9948H147.979C148.371 89.9948 148.723 90.0908 149.035 90.2828C149.355 90.4668 149.607 90.7188 149.791 91.0388C149.983 91.3508 150.079 91.7028 150.079 92.0948Z" fill="white"/>
<path d="M124.227 227.038H118.227C117.843 227.038 117.491 226.946 117.171 226.762C116.851 226.57 116.595 226.318 116.403 226.006C116.219 225.686 116.127 225.33 116.127 224.938C116.127 224.546 116.219 224.194 116.403 223.882C116.595 223.562 116.851 223.31 117.171 223.126C117.491 222.934 117.843 222.838 118.227 222.838H122.427V224.038H118.227C117.979 224.038 117.767 224.126 117.591 224.302C117.415 224.478 117.327 224.69 117.327 224.938C117.327 225.186 117.415 225.398 117.591 225.574C117.767 225.75 117.979 225.838 118.227 225.838H123.027V222.538C123.027 222.29 122.939 222.078 122.763 221.902C122.587 221.726 122.375 221.638 122.127 221.638H117.327V220.438H122.127C122.519 220.438 122.871 220.534 123.183 220.726C123.503 220.91 123.755 221.162 123.939 221.482C124.131 221.794 124.227 222.146 124.227 222.538V227.038ZM133.57 227.038H129.07C128.614 227.038 128.186 226.954 127.786 226.786C127.394 226.61 127.046 226.37 126.742 226.066C126.446 225.762 126.214 225.414 126.046 225.022C125.878 224.622 125.794 224.194 125.794 223.738V220.438H126.994V223.738C126.994 224.122 127.086 224.474 127.27 224.794C127.462 225.106 127.714 225.358 128.026 225.55C128.338 225.734 128.686 225.83 129.07 225.838H132.37V220.438H133.57V227.038ZM137.617 227.038H136.417V221.638H134.617V220.438H136.417V218.038H137.617V220.438H141.817V221.638H137.617V227.038ZM150.542 227.038H149.342V223.738C149.342 223.354 149.25 223.006 149.066 222.694C148.882 222.374 148.63 222.118 148.31 221.926C147.998 221.734 147.65 221.638 147.266 221.638H143.966V227.038H142.766V218.038H143.966V220.438H147.266C147.722 220.438 148.146 220.526 148.538 220.702C148.938 220.87 149.286 221.106 149.582 221.41C149.886 221.714 150.122 222.066 150.29 222.466C150.458 222.858 150.542 223.282 150.542 223.738V227.038Z" fill="white"/>
<path d="M103.22 360.747H102.02V355.347H98.72C98.336 355.347 97.988 355.443 97.676 355.635C97.364 355.819 97.112 356.071 96.92 356.391C96.736 356.711 96.644 357.063 96.644 357.447C96.644 357.831 96.736 358.183 96.92 358.503C97.112 358.815 97.364 359.067 97.676 359.259C97.988 359.443 98.336 359.539 98.72 359.547H101.42V360.747H98.72C98.264 360.747 97.836 360.663 97.436 360.495C97.044 360.319 96.696 360.079 96.392 359.775C96.096 359.471 95.864 359.123 95.696 358.731C95.528 358.331 95.444 357.903 95.444 357.447C95.444 356.991 95.528 356.567 95.696 356.175C95.864 355.775 96.096 355.423 96.392 355.119C96.696 354.815 97.044 354.579 97.436 354.411C97.836 354.235 98.264 354.147 98.72 354.147H102.02V351.747H103.22V360.747ZM112.626 356.247C112.626 356.631 112.53 356.983 112.338 357.303C112.154 357.623 111.902 357.879 111.582 358.071C111.27 358.255 110.918 358.347 110.526 358.347H105.93C106.098 358.699 106.346 358.987 106.674 359.211C107.01 359.435 107.386 359.547 107.802 359.547H111.726V360.747H107.802C107.346 360.747 106.918 360.663 106.518 360.495C106.126 360.319 105.778 360.079 105.474 359.775C105.178 359.471 104.946 359.123 104.778 358.731C104.61 358.331 104.526 357.903 104.526 357.447C104.526 356.991 104.61 356.567 104.778 356.175C104.946 355.775 105.178 355.423 105.474 355.119C105.778 354.815 106.126 354.579 106.518 354.411C106.918 354.235 107.346 354.147 107.802 354.147H110.526C110.918 354.147 111.27 354.243 111.582 354.435C111.902 354.619 112.154 354.871 112.338 355.191C112.53 355.503 112.626 355.855 112.626 356.247ZM110.526 357.147C110.774 357.147 110.986 357.059 111.162 356.883C111.338 356.707 111.426 356.495 111.426 356.247C111.426 355.999 111.338 355.787 111.162 355.611C110.986 355.435 110.774 355.347 110.526 355.347H107.802C107.45 355.347 107.126 355.427 106.83 355.587C106.542 355.747 106.302 355.963 106.11 356.235C105.918 356.507 105.798 356.811 105.75 357.147H110.526ZM120.693 358.647C120.693 359.039 120.597 359.395 120.405 359.715C120.221 360.027 119.969 360.279 119.649 360.471C119.337 360.655 118.985 360.747 118.593 360.747H113.493V359.547H118.593C118.841 359.547 119.053 359.459 119.229 359.283C119.405 359.107 119.493 358.895 119.493 358.647C119.493 358.399 119.405 358.187 119.229 358.011C119.053 357.835 118.841 357.747 118.593 357.747H115.293C114.965 357.747 114.661 357.667 114.381 357.507C114.109 357.347 113.893 357.131 113.733 356.859C113.573 356.579 113.493 356.275 113.493 355.947C113.493 355.611 113.573 355.307 113.733 355.035C113.893 354.763 114.109 354.547 114.381 354.387C114.661 354.227 114.965 354.147 115.293 354.147H120.093V355.347H115.293C115.125 355.347 114.981 355.407 114.861 355.527C114.749 355.639 114.693 355.779 114.693 355.947C114.693 356.115 114.749 356.259 114.861 356.379C114.981 356.491 115.125 356.547 115.293 356.547H118.593C118.985 356.547 119.337 356.643 119.649 356.835C119.969 357.019 120.221 357.271 120.405 357.591C120.597 357.903 120.693 358.255 120.693 358.647ZM129.607 356.247C129.607 356.631 129.511 356.983 129.319 357.303C129.135 357.623 128.883 357.879 128.562 358.071C128.251 358.255 127.899 358.347 127.507 358.347H122.911C123.079 358.699 123.327 358.987 123.655 359.211C123.991 359.435 124.367 359.547 124.783 359.547H128.707V360.747H124.783C124.327 360.747 123.899 360.663 123.499 360.495C123.107 360.319 122.759 360.079 122.455 359.775C122.159 359.471 121.927 359.123 121.759 358.731C121.591 358.331 121.507 357.903 121.507 357.447C121.507 356.991 121.591 356.567 121.759 356.175C121.927 355.775 122.159 355.423 122.455 355.119C122.759 354.815 123.107 354.579 123.499 354.411C123.899 354.235 124.327 354.147 124.783 354.147H127.507C127.899 354.147 128.251 354.243 128.562 354.435C128.883 354.619 129.135 354.871 129.319 355.191C129.511 355.503 129.607 355.855 129.607 356.247ZM127.507 357.147C127.755 357.147 127.967 357.059 128.143 356.883C128.319 356.707 128.407 356.495 128.407 356.247C128.407 355.999 128.319 355.787 128.143 355.611C127.967 355.435 127.755 355.347 127.507 355.347H124.783C124.431 355.347 124.107 355.427 123.811 355.587C123.523 355.747 123.283 355.963 123.091 356.235C122.899 356.507 122.779 356.811 122.731 357.147H127.507ZM137.338 355.347H132.838C132.59 355.347 132.378 355.435 132.202 355.611C132.026 355.787 131.938 355.999 131.938 356.247V360.747H130.738V356.247C130.738 355.855 130.83 355.503 131.014 355.191C131.206 354.871 131.462 354.619 131.782 354.435C132.102 354.243 132.454 354.147 132.838 354.147H137.338V355.347ZM139.809 352.647C139.809 352.895 139.721 353.107 139.545 353.283C139.369 353.459 139.157 353.547 138.909 353.547C138.661 353.547 138.449 353.459 138.273 353.283C138.097 353.107 138.009 352.895 138.009 352.647C138.009 352.399 138.097 352.187 138.273 352.011C138.449 351.835 138.661 351.747 138.909 351.747C139.157 351.747 139.369 351.835 139.545 352.011C139.721 352.187 139.809 352.399 139.809 352.647ZM139.509 360.747H138.309V354.147H139.509V360.747ZM148.751 360.747H142.751C142.367 360.747 142.015 360.655 141.695 360.471C141.375 360.279 141.119 360.027 140.927 359.715C140.743 359.395 140.651 359.039 140.651 358.647C140.651 358.255 140.743 357.903 140.927 357.591C141.119 357.271 141.375 357.019 141.695 356.835C142.015 356.643 142.367 356.547 142.751 356.547H146.951V357.747H142.751C142.503 357.747 142.291 357.835 142.115 358.011C141.939 358.187 141.851 358.399 141.851 358.647C141.851 358.895 141.939 359.107 142.115 359.283C142.291 359.459 142.503 359.547 142.751 359.547H147.551V356.247C147.551 355.999 147.463 355.787 147.287 355.611C147.111 355.435 146.899 355.347 146.651 355.347H141.851V354.147H146.651C147.043 354.147 147.395 354.243 147.707 354.435C148.027 354.619 148.279 354.871 148.463 355.191C148.655 355.503 148.751 355.855 148.751 356.247V360.747ZM152.779 360.747H152.479C152.095 360.747 151.743 360.655 151.423 360.471C151.103 360.279 150.847 360.027 150.655 359.715C150.471 359.395 150.379 359.039 150.379 358.647V351.747H151.579V358.647C151.579 358.895 151.667 359.107 151.843 359.283C152.019 359.459 152.231 359.547 152.479 359.547H152.779V360.747ZM155.325 352.647C155.325 352.895 155.237 353.107 155.061 353.283C154.885 353.459 154.673 353.547 154.425 353.547C154.177 353.547 153.965 353.459 153.789 353.283C153.613 353.107 153.525 352.895 153.525 352.647C153.525 352.399 153.613 352.187 153.789 352.011C153.965 351.835 154.177 351.747 154.425 351.747C154.673 351.747 154.885 351.835 155.061 352.011C155.237 352.187 155.325 352.399 155.325 352.647ZM155.025 360.747H153.825V354.147H155.025V360.747ZM164.195 355.347L158.411 359.547H164.195V360.747H156.395V359.547L162.167 355.347H156.395V354.147H164.195V355.347ZM173.165 356.247C173.165 356.631 173.069 356.983 172.877 357.303C172.693 357.623 172.441 357.879 172.121 358.071C171.809 358.255 171.457 358.347 171.065 358.347H166.469C166.637 358.699 166.885 358.987 167.213 359.211C167.549 359.435 167.925 359.547 168.341 359.547H172.265V360.747H168.341C167.885 360.747 167.457 360.663 167.057 360.495C166.665 360.319 166.317 360.079 166.013 359.775C165.717 359.471 165.485 359.123 165.317 358.731C165.149 358.331 165.065 357.903 165.065 357.447C165.065 356.991 165.149 356.567 165.317 356.175C165.485 355.775 165.717 355.423 166.013 355.119C166.317 354.815 166.665 354.579 167.057 354.411C167.457 354.235 167.885 354.147 168.341 354.147H171.065C171.457 354.147 171.809 354.243 172.121 354.435C172.441 354.619 172.693 354.871 172.877 355.191C173.069 355.503 173.165 355.855 173.165 356.247ZM171.065 357.147C171.313 357.147 171.525 357.059 171.701 356.883C171.877 356.707 171.965 356.495 171.965 356.247C171.965 355.999 171.877 355.787 171.701 355.611C171.525 355.435 171.313 355.347 171.065 355.347H168.341C167.989 355.347 167.665 355.427 167.369 355.587C167.081 355.747 166.841 355.963 166.649 356.235C166.457 356.507 166.337 356.811 166.289 357.147H171.065Z" fill="white"/>
<path d="M113.628 484.975L109.98 491.575H108.612L104.988 484.975H106.392L109.296 490.327L112.224 484.975H113.628ZM121.68 491.575H115.68C115.296 491.575 114.944 491.483 114.624 491.299C114.304 491.107 114.048 490.855 113.856 490.543C113.672 490.223 113.58 489.867 113.58 489.475C113.58 489.083 113.672 488.731 113.856 488.419C114.048 488.099 114.304 487.847 114.624 487.663C114.944 487.471 115.296 487.375 115.68 487.375H119.88V488.575H115.68C115.432 488.575 115.22 488.663 115.044 488.839C114.868 489.015 114.78 489.227 114.78 489.475C114.78 489.723 114.868 489.935 115.044 490.111C115.22 490.287 115.432 490.375 115.68 490.375H120.48V487.075C120.48 486.827 120.392 486.615 120.216 486.439C120.04 486.263 119.828 486.175 119.58 486.175H114.78V484.975H119.58C119.972 484.975 120.324 485.071 120.636 485.263C120.956 485.447 121.208 485.699 121.392 486.019C121.584 486.331 121.68 486.683 121.68 487.075V491.575ZM125.708 491.575H125.408C125.024 491.575 124.672 491.483 124.352 491.299C124.032 491.107 123.776 490.855 123.584 490.543C123.4 490.223 123.308 489.867 123.308 489.475V482.575H124.508V489.475C124.508 489.723 124.596 489.935 124.772 490.111C124.948 490.287 125.16 490.375 125.408 490.375H125.708V491.575ZM128.254 483.475C128.254 483.723 128.166 483.935 127.99 484.111C127.814 484.287 127.602 484.375 127.354 484.375C127.106 484.375 126.894 484.287 126.718 484.111C126.542 483.935 126.454 483.723 126.454 483.475C126.454 483.227 126.542 483.015 126.718 482.839C126.894 482.663 127.106 482.575 127.354 482.575C127.602 482.575 127.814 482.663 127.99 482.839C128.166 483.015 128.254 483.227 128.254 483.475ZM127.954 491.575H126.754V484.975H127.954V491.575ZM137.04 491.575H135.84V486.175H132.54C132.156 486.175 131.808 486.271 131.496 486.463C131.184 486.647 130.932 486.899 130.74 487.219C130.556 487.539 130.464 487.891 130.464 488.275C130.464 488.659 130.556 489.011 130.74 489.331C130.932 489.643 131.184 489.895 131.496 490.087C131.808 490.271 132.156 490.367 132.54 490.375H135.24V491.575H132.54C132.084 491.575 131.656 491.491 131.256 491.323C130.864 491.147 130.516 490.907 130.212 490.603C129.916 490.299 129.684 489.951 129.516 489.559C129.348 489.159 129.264 488.731 129.264 488.275C129.264 487.819 129.348 487.395 129.516 487.003C129.684 486.603 129.916 486.251 130.212 485.947C130.516 485.643 130.864 485.407 131.256 485.239C131.656 485.063 132.084 484.975 132.54 484.975H135.84V482.575H137.04V491.575ZM146.278 491.575H140.278C139.894 491.575 139.542 491.483 139.222 491.299C138.902 491.107 138.646 490.855 138.454 490.543C138.27 490.223 138.178 489.867 138.178 489.475C138.178 489.083 138.27 488.731 138.454 488.419C138.646 488.099 138.902 487.847 139.222 487.663C139.542 487.471 139.894 487.375 140.278 487.375H144.478V488.575H140.278C140.03 488.575 139.818 488.663 139.642 488.839C139.466 489.015 139.378 489.227 139.378 489.475C139.378 489.723 139.466 489.935 139.642 490.111C139.818 490.287 140.03 490.375 140.278 490.375H145.078V487.075C145.078 486.827 144.99 486.615 144.814 486.439C144.638 486.263 144.426 486.175 144.178 486.175H139.378V484.975H144.178C144.57 484.975 144.922 485.071 145.234 485.263C145.554 485.447 145.806 485.699 145.99 486.019C146.182 486.331 146.278 486.683 146.278 487.075V491.575ZM150.269 491.575H149.069V486.175H147.269V484.975H149.069V482.575H150.269V484.975H154.469V486.175H150.269V491.575ZM162.946 487.075C162.946 487.459 162.85 487.811 162.658 488.131C162.474 488.451 162.222 488.707 161.902 488.899C161.59 489.083 161.238 489.175 160.846 489.175H156.25C156.418 489.527 156.666 489.815 156.994 490.039C157.33 490.263 157.706 490.375 158.122 490.375H162.046V491.575H158.122C157.666 491.575 157.238 491.491 156.838 491.323C156.446 491.147 156.098 490.907 155.794 490.603C155.498 490.299 155.266 489.951 155.098 489.559C154.93 489.159 154.846 488.731 154.846 488.275C154.846 487.819 154.93 487.395 155.098 487.003C155.266 486.603 155.498 486.251 155.794 485.947C156.098 485.643 156.446 485.407 156.838 485.239C157.238 485.063 157.666 484.975 158.122 484.975H160.846C161.238 484.975 161.59 485.071 161.902 485.263C162.222 485.447 162.474 485.699 162.658 486.019C162.85 486.331 162.946 486.683 162.946 487.075ZM160.846 487.975C161.094 487.975 161.306 487.887 161.482 487.711C161.658 487.535 161.746 487.323 161.746 487.075C161.746 486.827 161.658 486.615 161.482 486.439C161.306 486.263 161.094 486.175 160.846 486.175H158.122C157.77 486.175 157.446 486.255 157.15 486.415C156.862 486.575 156.622 486.791 156.43 487.063C156.238 487.335 156.118 487.639 156.07 487.975H160.846Z" fill="white"/>
<path d="M111.017 622.318C111.017 622.71 110.921 623.066 110.729 623.386C110.545 623.698 110.293 623.95 109.973 624.142C109.661 624.326 109.309 624.418 108.917 624.418H103.817V623.218H108.917C109.165 623.218 109.377 623.13 109.553 622.954C109.729 622.778 109.817 622.566 109.817 622.318C109.817 622.07 109.729 621.858 109.553 621.682C109.377 621.506 109.165 621.418 108.917 621.418H105.617C105.289 621.418 104.985 621.338 104.705 621.178C104.433 621.018 104.217 620.802 104.057 620.53C103.897 620.25 103.817 619.946 103.817 619.618C103.817 619.282 103.897 618.978 104.057 618.706C104.217 618.434 104.433 618.218 104.705 618.058C104.985 617.898 105.289 617.818 105.617 617.818H110.417V619.018H105.617C105.449 619.018 105.305 619.078 105.185 619.198C105.073 619.31 105.017 619.45 105.017 619.618C105.017 619.786 105.073 619.93 105.185 620.05C105.305 620.162 105.449 620.218 105.617 620.218H108.917C109.309 620.218 109.661 620.314 109.973 620.506C110.293 620.69 110.545 620.942 110.729 621.262C110.921 621.574 111.017 621.926 111.017 622.318ZM119.93 619.918C119.93 620.302 119.834 620.654 119.642 620.974C119.458 621.294 119.206 621.55 118.886 621.742C118.574 621.926 118.222 622.018 117.83 622.018H113.234C113.402 622.37 113.65 622.658 113.978 622.882C114.314 623.106 114.69 623.218 115.106 623.218H119.03V624.418H115.106C114.65 624.418 114.222 624.334 113.822 624.166C113.43 623.99 113.082 623.75 112.778 623.446C112.482 623.142 112.25 622.794 112.082 622.402C111.914 622.002 111.83 621.574 111.83 621.118C111.83 620.662 111.914 620.238 112.082 619.846C112.25 619.446 112.482 619.094 112.778 618.79C113.082 618.486 113.43 618.25 113.822 618.082C114.222 617.906 114.65 617.818 115.106 617.818H117.83C118.222 617.818 118.574 617.914 118.886 618.106C119.206 618.29 119.458 618.542 119.642 618.862C119.834 619.174 119.93 619.526 119.93 619.918ZM117.83 620.818C118.078 620.818 118.29 620.73 118.466 620.554C118.642 620.378 118.73 620.166 118.73 619.918C118.73 619.67 118.642 619.458 118.466 619.282C118.29 619.106 118.078 619.018 117.83 619.018H115.106C114.754 619.018 114.43 619.098 114.134 619.258C113.846 619.418 113.606 619.634 113.414 619.906C113.222 620.178 113.102 620.482 113.054 620.818H117.83ZM127.661 619.018H123.161C122.913 619.018 122.701 619.106 122.525 619.282C122.349 619.458 122.261 619.67 122.261 619.918V624.418H121.061V619.918C121.061 619.526 121.153 619.174 121.337 618.862C121.529 618.542 121.785 618.29 122.105 618.106C122.425 617.914 122.777 617.818 123.161 617.818H127.661V619.018ZM130.133 616.318C130.133 616.566 130.045 616.778 129.869 616.954C129.693 617.13 129.481 617.218 129.233 617.218C128.985 617.218 128.773 617.13 128.597 616.954C128.421 616.778 128.333 616.566 128.333 616.318C128.333 616.07 128.421 615.858 128.597 615.682C128.773 615.506 128.985 615.418 129.233 615.418C129.481 615.418 129.693 615.506 129.869 615.682C130.045 615.858 130.133 616.07 130.133 616.318ZM129.833 624.418H128.633V617.818H129.833V624.418ZM139.075 624.418H133.075C132.691 624.418 132.339 624.326 132.019 624.142C131.699 623.95 131.443 623.698 131.251 623.386C131.067 623.066 130.975 622.71 130.975 622.318C130.975 621.926 131.067 621.574 131.251 621.262C131.443 620.942 131.699 620.69 132.019 620.506C132.339 620.314 132.691 620.218 133.075 620.218H137.275V621.418H133.075C132.827 621.418 132.615 621.506 132.439 621.682C132.263 621.858 132.175 622.07 132.175 622.318C132.175 622.566 132.263 622.778 132.439 622.954C132.615 623.13 132.827 623.218 133.075 623.218H137.875V619.918C137.875 619.67 137.787 619.458 137.611 619.282C137.435 619.106 137.223 619.018 136.975 619.018H132.175V617.818H136.975C137.367 617.818 137.719 617.914 138.031 618.106C138.351 618.29 138.603 618.542 138.787 618.862C138.979 619.174 139.075 619.526 139.075 619.918V624.418ZM143.102 624.418H142.802C142.418 624.418 142.066 624.326 141.746 624.142C141.426 623.95 141.17 623.698 140.978 623.386C140.794 623.066 140.702 622.71 140.702 622.318V615.418H141.902V622.318C141.902 622.566 141.99 622.778 142.166 622.954C142.342 623.13 142.554 623.218 142.802 623.218H143.102V624.418ZM145.649 616.318C145.649 616.566 145.561 616.778 145.385 616.954C145.209 617.13 144.997 617.218 144.749 617.218C144.501 617.218 144.289 617.13 144.113 616.954C143.937 616.778 143.849 616.566 143.849 616.318C143.849 616.07 143.937 615.858 144.113 615.682C144.289 615.506 144.501 615.418 144.749 615.418C144.997 615.418 145.209 615.506 145.385 615.682C145.561 615.858 145.649 616.07 145.649 616.318ZM145.349 624.418H144.149V617.818H145.349V624.418ZM154.518 619.018L148.734 623.218H154.518V624.418H146.718V623.218L152.49 619.018H146.718V617.818H154.518V619.018ZM163.489 619.918C163.489 620.302 163.393 620.654 163.201 620.974C163.017 621.294 162.765 621.55 162.445 621.742C162.133 621.926 161.781 622.018 161.389 622.018H156.793C156.961 622.37 157.209 622.658 157.537 622.882C157.873 623.106 158.249 623.218 158.665 623.218H162.589V624.418H158.665C158.209 624.418 157.781 624.334 157.381 624.166C156.989 623.99 156.641 623.75 156.337 623.446C156.041 623.142 155.809 622.794 155.641 622.402C155.473 622.002 155.389 621.574 155.389 621.118C155.389 620.662 155.473 620.238 155.641 619.846C155.809 619.446 156.041 619.094 156.337 618.79C156.641 618.486 156.989 618.25 157.381 618.082C157.781 617.906 158.209 617.818 158.665 617.818H161.389C161.781 617.818 162.133 617.914 162.445 618.106C162.765 618.29 163.017 618.542 163.201 618.862C163.393 619.174 163.489 619.526 163.489 619.918ZM161.389 620.818C161.637 620.818 161.849 620.73 162.025 620.554C162.201 620.378 162.289 620.166 162.289 619.918C162.289 619.67 162.201 619.458 162.025 619.282C161.849 619.106 161.637 619.018 161.389 619.018H158.665C158.313 619.018 157.989 619.098 157.693 619.258C157.405 619.418 157.165 619.634 156.973 619.906C156.781 620.178 156.661 620.482 156.613 620.818H161.389Z" fill="white"/>
<path fill-rule="evenodd" clip-rule="evenodd" d="M8 179.797C3.58172 179.797 0 183.379 0 187.797V259.613C0 264.032 3.58172 267.613 8 267.613H261.304C265.722 267.613 269.304 264.032 269.304 259.613V187.797C269.304 183.379 265.722 179.797 261.304 179.797H8ZM10.8545 185.651C8.09303 185.651 5.85445 187.89 5.85445 190.651V256.759C5.85445 259.52 8.09304 261.759 10.8545 261.759H258.449C261.211 261.759 263.449 259.52 263.449 256.759V190.651C263.449 187.89 261.211 185.651 258.449 185.651H10.8545Z" fill="white"/>
<path fill-rule="evenodd" clip-rule="evenodd" d="M8 577.898C3.58172 577.898 0 581.48 0 585.898V657.714C0 662.133 3.58172 665.714 8 665.714H261.304C265.722 665.714 269.304 662.133 269.304 657.714V585.898C269.304 581.48 265.722 577.898 261.304 577.898H8ZM10.8545 583.752C8.09303 583.752 5.85445 585.991 5.85445 588.752V654.86C5.85445 657.621 8.09304 659.86 10.8545 659.86H258.449C261.211 659.86 263.449 657.621 263.449 654.86V588.752C263.449 585.991 261.211 583.752 258.449 583.752H10.8545Z" fill="white"/>
<circle cx="227.347" cy="132.134" r="12.1967" transform="rotate(-180 227.347 132.134)" fill="#11032C"/>
<rect x="230.274" y="152.137" width="5.85443" height="17.5633" transform="rotate(-180 230.274 152.137)" fill="white"/>
<circle cx="227.347" cy="131.646" r="4.87869" transform="rotate(-180 227.347 131.646)" fill="white"/>
<path d="M234.177 142.676C237.698 140.422 240.031 136.476 240.031 131.986C240.031 124.98 234.352 119.301 227.347 119.301C220.341 119.301 214.662 124.98 214.662 131.986C214.662 136.476 216.996 140.422 220.517 142.676L220.517 140.266C218.133 138.297 216.614 135.319 216.614 131.986C216.614 126.058 221.419 121.253 227.347 121.253C233.275 121.253 238.08 126.058 238.08 131.986C238.08 135.319 236.561 138.297 234.177 140.266L234.177 142.676Z" fill="white"/>
<rect x="226.371" y="150.525" width="1.95148" height="13.6603" fill="white"/>
<circle cx="227.347" cy="182.236" r="12.1967" fill="#11032C"/>
<rect x="224.42" y="162.234" width="5.85443" height="17.5633" fill="white"/>
<circle cx="227.347" cy="182.724" r="4.87869" fill="white"/>
<path d="M220.517 171.694C216.996 173.948 214.662 177.894 214.662 182.385C214.662 189.39 220.341 195.069 227.347 195.069C234.352 195.069 240.031 189.39 240.031 182.385C240.031 177.894 237.698 173.948 234.177 171.694V174.105C236.561 176.074 238.08 179.052 238.08 182.385C238.08 188.312 233.275 193.118 227.347 193.118C221.419 193.118 216.614 188.312 216.614 182.385C216.614 179.052 218.133 176.074 220.517 174.105V171.694Z" fill="white"/>
<path fill-rule="evenodd" clip-rule="evenodd" d="M8 312.497C3.58172 312.497 0 316.079 0 320.497V392.314C0 396.732 3.58172 400.314 8 400.314H261.304C265.722 400.314 269.304 396.732 269.304 392.314V320.497C269.304 316.079 265.722 312.497 261.304 312.497H8ZM10.8545 318.352C8.09303 318.352 5.85445 320.59 5.85445 323.352V389.459C5.85445 392.221 8.09304 394.459 10.8545 394.459H258.449C261.211 394.459 263.449 392.221 263.449 389.459V323.352C263.449 320.59 261.211 318.352 258.449 318.352H10.8545Z" fill="white"/>
<circle cx="45.8597" cy="264.835" r="12.1967" transform="rotate(-180 45.8597 264.835)" fill="#11032C"/>
<rect x="48.7869" y="284.837" width="5.85443" height="17.5633" transform="rotate(-180 48.7869 284.837)" fill="white"/>
<circle cx="45.8597" cy="264.347" r="4.87869" transform="rotate(-180 45.8597 264.347)" fill="white"/>
<path d="M52.6898 275.377C56.2105 273.123 58.5442 269.177 58.5442 264.686C58.5442 257.681 52.8651 252.002 45.8596 252.002C38.8541 252.002 33.175 257.681 33.175 264.686C33.175 269.177 35.5087 273.123 39.0294 275.377L39.0294 272.966C36.6457 270.997 35.1265 268.019 35.1265 264.686C35.1265 258.758 39.9319 253.953 45.8596 253.953C51.7873 253.953 56.5927 258.758 56.5927 264.686C56.5927 268.019 55.0735 270.997 52.6898 272.966L52.6898 275.377Z" fill="white"/>
<rect x="44.8839" y="283.225" width="1.95148" height="13.6603" fill="white"/>
<circle cx="45.8596" cy="314.937" r="12.1967" fill="#11032C"/>
<rect x="42.9324" y="294.934" width="5.85443" height="17.5633" fill="white"/>
<circle cx="45.8598" cy="315.425" r="4.87869" fill="white"/>
<path d="M39.0295 304.395C35.5087 306.649 33.175 310.594 33.175 315.085C33.175 322.091 38.8541 327.77 45.8596 327.77C52.8651 327.77 58.5442 322.091 58.5442 315.085C58.5442 310.594 56.2106 306.649 52.6898 304.395V306.805C55.0735 308.774 56.5928 311.752 56.5928 315.085C56.5928 321.013 51.7874 325.818 45.8596 325.818C39.9319 325.818 35.1265 321.013 35.1265 315.085C35.1265 311.752 36.6457 308.774 39.0295 306.805V304.395Z" fill="white"/>
<path fill-rule="evenodd" clip-rule="evenodd" d="M8 445.198C3.58172 445.198 0 448.779 0 453.198V525.014C0 529.432 3.58172 533.014 8 533.014H261.304C265.722 533.014 269.304 529.432 269.304 525.014V453.198C269.304 448.779 265.722 445.198 261.304 445.198H8ZM10.8545 451.052C8.09303 451.052 5.85445 453.291 5.85445 456.052V522.16C5.85445 524.921 8.09304 527.16 10.8545 527.16H258.449C261.211 527.16 263.449 524.921 263.449 522.16V456.052C263.449 453.291 261.211 451.052 258.449 451.052H10.8545Z" fill="white"/>
<circle cx="227.347" cy="397.535" r="12.1967" transform="rotate(-180 227.347 397.535)" fill="#11032C"/>
<rect x="230.274" y="417.537" width="5.85443" height="17.5633" transform="rotate(-180 230.274 417.537)" fill="white"/>
<circle cx="227.347" cy="397.047" r="4.87869" transform="rotate(-180 227.347 397.047)" fill="white"/>
<path d="M234.177 408.077C237.698 405.823 240.031 401.877 240.031 397.386C240.031 390.381 234.352 384.702 227.347 384.702C220.341 384.702 214.662 390.381 214.662 397.386C214.662 401.877 216.996 405.823 220.517 408.077L220.517 405.666C218.133 403.698 216.614 400.719 216.614 397.386C216.614 391.459 221.419 386.653 227.347 386.653C233.275 386.653 238.08 391.459 238.08 397.386C238.08 400.719 236.561 403.698 234.177 405.666L234.177 408.077Z" fill="white"/>
<rect x="226.371" y="415.925" width="1.95148" height="13.6603" fill="white"/>
<circle cx="227.347" cy="447.637" r="12.1967" fill="#11032C"/>
<rect x="224.42" y="427.634" width="5.85443" height="17.5633" fill="white"/>
<circle cx="227.347" cy="448.125" r="4.87869" fill="white"/>
<path d="M220.517 437.095C216.996 439.349 214.662 443.295 214.662 447.785C214.662 454.791 220.341 460.47 227.347 460.47C234.352 460.47 240.031 454.791 240.031 447.785C240.031 443.295 237.698 439.349 234.177 437.095V439.506C236.561 441.474 238.08 444.452 238.08 447.785C238.08 453.713 233.275 458.519 227.347 458.519C221.419 458.519 216.614 453.713 216.614 447.785C216.614 444.452 218.133 441.474 220.517 439.506V437.095Z" fill="white"/>
<rect x="132.7" y="0.261292" width="1.95148" height="31.2236" fill="white"/>
<circle cx="45.8597" cy="530.235" r="12.1967" transform="rotate(-180 45.8597 530.235)" fill="#11032C"/>
<rect x="48.7869" y="550.238" width="5.85443" height="17.5633" transform="rotate(-180 48.7869 550.238)" fill="white"/>
<circle cx="45.8597" cy="529.747" r="4.87869" transform="rotate(-180 45.8597 529.747)" fill="white"/>
<path d="M52.6898 540.777C56.2105 538.523 58.5442 534.578 58.5442 530.087C58.5442 523.081 52.8651 517.402 45.8596 517.402C38.8541 517.402 33.175 523.081 33.175 530.087C33.175 534.578 35.5087 538.523 39.0294 540.777L39.0294 538.367C36.6457 536.398 35.1265 533.42 35.1265 530.087C35.1265 524.159 39.9319 519.354 45.8596 519.354C51.7873 519.354 56.5927 524.159 56.5927 530.087C56.5927 533.42 55.0735 536.398 52.6898 538.367L52.6898 540.777Z" fill="white"/>
<rect x="44.8839" y="548.626" width="1.95148" height="13.6603" fill="white"/>
<circle cx="45.8596" cy="580.337" r="12.1967" fill="#11032C"/>
<rect x="42.9324" y="560.335" width="5.85443" height="17.5633" fill="white"/>
<circle cx="45.8598" cy="580.825" r="4.87869" fill="white"/>
<path d="M39.0295 569.795C35.5087 572.049 33.175 575.995 33.175 580.486C33.175 587.491 38.8541 593.17 45.8596 593.17C52.8651 593.17 58.5442 587.491 58.5442 580.486C58.5442 575.995 56.2106 572.049 52.6898 569.795V572.206C55.0735 574.175 56.5928 577.153 56.5928 580.486C56.5928 586.413 51.7874 591.219 45.8596 591.219C39.9319 591.219 35.1265 586.413 35.1265 580.486C35.1265 577.153 36.6457 574.175 39.0295 572.206V569.795Z" fill="white"/>
<circle cx="133.676" cy="662.936" r="12.1967" transform="rotate(-180 133.676 662.936)" fill="#11032C"/>
<rect x="136.603" y="682.938" width="5.85443" height="17.5633" transform="rotate(-180 136.603 682.938)" fill="white"/>
<circle cx="133.676" cy="662.448" r="4.87869" transform="rotate(-180 133.676 662.448)" fill="white"/>
<path d="M140.506 673.478C144.027 671.224 146.361 667.278 146.361 662.787C146.361 655.782 140.682 650.102 133.676 650.102C126.671 650.102 120.992 655.782 120.992 662.787C120.992 667.278 123.325 671.224 126.846 673.478L126.846 671.067C124.462 669.098 122.943 666.12 122.943 662.787C122.943 656.859 127.748 652.054 133.676 652.054C139.604 652.054 144.409 656.859 144.409 662.787C144.409 666.12 142.89 669.098 140.506 671.067L140.506 673.478Z" fill="white"/>
<rect x="132.7" y="681.326" width="1.95148" height="42.9325" fill="white"/>
</g>
<rect x="0.0734863" width="269.546" height="723.923" fill="url(#paint0_linear_9_150)"/>
<defs>
<linearGradient id="paint0_linear_9_150" x1="134.846" y1="0" x2="134.846" y2="723.923" gradientUnits="userSpaceOnUse">
<stop offset="0.08" stop-color="#11032C"/>
<stop offset="0.489119" stop-color="#15002C" stop-opacity="0"/>
<stop offset="0.93" stop-color="#11032C"/>
</linearGradient>
</defs>
</svg>
